<svg version="1.1" id="Layer_1" xmlns="http://www.w3.org/2000/svg" xmlns:xlink="http://www.w3.org/1999/xlink" x="0px" y="0px"
	 width="100%" viewBox="0 0 159 123" enable-background="new 0 0 159 123" xml:space="preserve">
<path fill="#0F1014" opacity="1.000000" stroke="none" 
	d="
M1.000000,32.000000 
	C1.000000,21.675661 1.000000,11.351322 0.999998,1.020237 
	C53.944874,1.013491 106.889748,1.013491 159.917313,1.013491 
	C159.917313,41.909039 159.917313,82.818298 159.917313,123.863785 
	C107.000244,123.863785 54.000172,123.863785 1.000000,123.863785 
	C1.000000,113.919952 1.000000,103.928635 1.359953,93.518875 
	C2.169489,93.930359 2.775721,94.712524 3.045477,95.597275 
	C8.226448,112.590050 20.865971,122.000870 38.601715,122.004082 
	C66.569794,122.009155 94.537895,122.020798 122.505951,121.999741 
	C142.485992,121.984703 157.972443,106.535461 158.000427,86.608719 
	C158.022858,70.626991 158.018524,54.645191 158.001770,38.663448 
	C157.980515,18.385992 142.586685,3.010831 122.278694,2.998926 
	C94.310623,2.982530 66.342529,2.990064 38.374451,2.996313 
	C21.202999,3.000150 8.412412,12.378201 3.202603,28.645081 
	C2.809460,29.872618 1.749820,30.886696 1.000000,32.000000 
z"/>
<path fill="#3C3D40" opacity="1.000000" stroke="none" 
	d="
M1.000000,32.468658 
	C1.749820,30.886696 2.809460,29.872618 3.202603,28.645081 
	C8.412412,12.378201 21.202999,3.000150 38.374451,2.996313 
	C66.342529,2.990064 94.310623,2.982530 122.278694,2.998926 
	C142.586685,3.010831 157.980515,18.385992 158.001770,38.663448 
	C158.018524,54.645191 158.022858,70.626991 158.000427,86.608719 
	C157.972443,106.535461 142.485992,121.984703 122.505951,121.999741 
	C94.537895,122.020798 66.569794,122.009155 38.601715,122.004082 
	C20.865971,122.000870 8.226448,112.590050 3.045477,95.597275 
	C2.775721,94.712524 2.169489,93.930359 1.359953,93.050217 
	C1.000000,72.979103 1.000000,52.958210 1.000000,32.468658 
M155.994827,47.504547 
	C155.994858,44.505611 155.999451,41.506664 155.994217,38.507736 
	C155.960938,19.440020 141.555542,5.020777 122.483009,5.009433 
	C94.160088,4.992587 65.837143,4.992549 37.514225,5.009448 
	C18.443644,5.020826 4.028444,19.441885 4.008507,38.510517 
	C3.991784,54.504623 3.991726,70.498779 4.008523,86.492889 
	C4.028547,105.560303 18.444744,119.979271 37.517628,119.990585 
	C65.840546,120.007385 94.163483,120.007454 122.486404,119.990562 
	C141.556442,119.979187 155.968735,105.557701 155.992004,86.488846 
	C156.007462,73.826843 155.994858,61.164818 155.994827,47.504547 
z"/>
<path fill="#0F1014" opacity="1.000000" stroke="none" 
	d="
M155.994812,48.003677 
	C155.994858,61.164818 156.007462,73.826843 155.992004,86.488846 
	C155.968735,105.557701 141.556442,119.979187 122.486404,119.990562 
	C94.163483,120.007454 65.840546,120.007385 37.517628,119.990585 
	C18.444744,119.979271 4.028547,105.560303 4.008523,86.492889 
	C3.991726,70.498779 3.991784,54.504623 4.008507,38.510517 
	C4.028444,19.441885 18.443644,5.020826 37.514225,5.009448 
	C65.837143,4.992549 94.160088,4.992587 122.483009,5.009433 
	C141.555542,5.020777 155.960938,19.440020 155.994217,38.507736 
	C155.999451,41.506664 155.994858,44.505611 155.994812,48.003677 
M91.666374,43.042973 
	C89.408287,43.249252 87.150192,43.455528 84.982063,43.653591 
	C84.982063,57.043999 84.982063,69.923874 84.982063,82.676819 
	C88.425873,82.676819 91.502380,82.676819 95.093506,82.676819 
	C95.093506,78.800323 95.093506,75.254044 95.093506,71.825218 
	C98.777107,71.530128 101.948875,71.451332 105.064018,70.990074 
	C111.595314,70.022995 115.919250,64.521286 115.901581,57.488567 
	C115.883888,50.447647 111.593925,44.945374 105.030083,44.017582 
	C100.926521,43.437546 96.753120,43.351673 91.666374,43.042973 
M77.313293,43.406334 
	C72.895584,42.572136 70.265556,44.261829 68.729012,48.602798 
	C67.486755,52.112370 65.413284,55.327721 63.540592,59.003185 
	C61.884335,55.648918 60.425110,52.696854 58.968647,49.743427 
	C55.517944,42.746071 53.451645,41.904388 45.387775,44.230736 
	C50.253685,56.905289 61.878075,67.193253 58.136692,82.640045 
	C62.166439,82.640045 65.359505,82.640045 69.422684,82.640045 
	C65.073715,66.855865 77.281013,56.742626 81.888336,43.712059 
	C80.387894,43.589706 79.264473,43.498100 77.313293,43.406334 
z"/>
<path fill="#ECEFF8" opacity="1.000000" stroke="none" 
	d="
M92.138718,43.043518 
	C96.753120,43.351673 100.926521,43.437546 105.030083,44.017582 
	C111.593925,44.945374 115.883888,50.447647 115.901581,57.488567 
	C115.919250,64.521286 111.595314,70.022995 105.064018,70.990074 
	C101.948875,71.451332 98.777107,71.530128 95.093506,71.825218 
	C95.093506,75.254044 95.093506,78.800323 95.093506,82.676819 
	C91.502380,82.676819 88.425873,82.676819 84.982063,82.676819 
	C84.982063,69.923874 84.982063,57.043999 84.982063,43.653591 
	C87.150192,43.455528 89.408287,43.249252 92.138718,43.043518 
M105.099236,55.809998 
	C103.382683,50.473515 99.058243,51.986629 95.126518,51.777493 
	C95.126518,55.791996 95.126518,59.508499 95.126518,63.196613 
	C103.014885,63.837593 104.720352,62.693760 105.099236,55.809998 
z"/>
<path fill="#EBEEF7" opacity="1.000000" stroke="none" 
	d="
M77.727173,43.406410 
	C79.264473,43.498100 80.387894,43.589706 81.888336,43.712059 
	C77.281013,56.742626 65.073715,66.855865 69.422684,82.640045 
	C65.359505,82.640045 62.166439,82.640045 58.136692,82.640045 
	C61.878075,67.193253 50.253685,56.905289 45.387775,44.230736 
	C53.451645,41.904388 55.517944,42.746071 58.968647,49.743427 
	C60.425110,52.696854 61.884335,55.648918 63.540592,59.003185 
	C65.413284,55.327721 67.486755,52.112370 68.729012,48.602798 
	C70.265556,44.261829 72.895584,42.572136 77.727173,43.406410 
z"/>
<path fill="#141519" opacity="1.000000" stroke="none" 
	d="
M105.157150,56.229050 
	C104.720352,62.693760 103.014885,63.837593 95.126518,63.196613 
	C95.126518,59.508499 95.126518,55.791996 95.126518,51.777493 
	C99.058243,51.986629 103.382683,50.473515 105.157150,56.229050 
z"/>
</svg>